<svg width="213" height="182" viewBox="0 0 213 182" fill="none" xmlns="http://www.w3.org/2000/svg">
<path fill-rule="evenodd" clip-rule="evenodd" d="M52.1357 90.1689C52.1357 90.1689 56.5465 110.235 57.1526 114.101C57.3555 115.396 57.9768 116.873 58.883 118.502C51.7391 120.286 42.1384 122.845 35.8021 124.599C33.2143 125.314 31.1721 125.897 30.0637 126.237C24.5095 127.939 23.1269 127.958 21.8464 127.368C20.5666 126.776 22.0737 124.519 22.0737 124.519L23.1789 117.174C23.1789 117.174 21.5131 116.645 15.7589 115.052C10.006 113.458 0 115.542 0 115.542C0 115.542 0.193349 124.861 0.472208 129.176C0.753894 133.489 2.61543 141.833 8.54957 145.339C14.4841 148.844 20.8734 142.889 25.0443 140.453C27.2497 139.165 33.1517 136.08 39.364 132.869C44.9072 130.004 50.6965 127.04 54.3227 125.163C56.6027 123.984 58.9124 122.896 61.0323 121.951C61.4783 122.612 61.9477 123.289 62.4386 123.982C63.7247 125.803 65.1416 127.73 66.5705 129.737C71.039 136.008 71.4405 139.59 73.6753 141.22C74.0025 141.458 74.3394 141.692 74.6843 141.921C73.9615 142.923 72.8882 143.79 71.2914 144.189C66.1867 145.466 50.7714 146.894 47.1095 147.785C43.449 148.677 40.6427 149.711 39.8468 150.707C39.053 151.704 35.5282 158.515 35.5282 158.515C35.5282 158.515 58.4356 167.757 68.8021 171.755C79.1698 175.755 84.4104 180.4 91.0801 181.016C97.7476 181.635 104.749 177.287 112.556 178.598C120.363 179.908 141.147 178.629 147.489 179.693C153.832 180.757 163.479 172.588 174.341 170.646C185.201 168.705 196.548 168.351 199.964 168.925L205.331 169.827C205.331 169.827 202.704 155.58 194.13 148.37C185.556 141.157 173.405 132.842 168.444 131.006C163.485 129.17 151.533 125.658 151.533 125.658L149.983 130.437C149.983 130.437 137.952 124.402 136.332 117.604C134.713 110.807 136.316 93.7575 136.316 93.7575C136.316 93.7575 142.343 87.7423 143.324 83.3898C144.304 79.0362 143.918 75.8142 144.104 75.364C144.12 75.3234 144.096 75.1292 144.035 74.8089L144.715 75.0893C144.715 75.0893 147.647 71.0639 147.933 69.3558C148.22 67.6464 145.664 61.9462 144.529 56.7361C143.397 51.5274 142.68 36.3485 140.325 32.4398C137.971 28.5297 121.955 20.8223 121.955 20.8223C121.955 20.8223 121.51 20.4969 113.745 15.9308C105.983 11.3654 96.0264 3.41965 88.9517 2.2325C81.8774 1.04465 73.1741 0.587403 69.5514 4.24573C65.928 7.90371 61.0414 13.1074 54.5683 18.7977C52.2282 20.8544 50.5466 23.2857 49.3531 25.5507C47.2477 29.5506 46.6652 33.0314 46.6652 33.0314C46.6652 33.0314 34.3764 37.4946 33.1899 44.5743C32.0041 51.6526 35.2147 53.4456 36.6726 58.2101C38.1319 62.9724 37.9206 70.2148 39.6609 79.2919C41.4001 88.3671 52.1357 90.1689 52.1357 90.1689Z" fill="#231F20"/>
<path fill-rule="evenodd" clip-rule="evenodd" d="M83.1087 135.477C83.1087 135.477 83.3469 141.539 78.2408 142.816C73.1362 144.093 57.7209 145.52 54.059 146.412C50.3985 147.304 47.5922 148.338 46.7963 149.334C46.0024 150.331 42.4777 157.143 42.4777 157.143C42.4777 157.143 65.3851 166.384 75.7516 170.383C86.1192 174.381 91.3599 179.026 98.0289 179.645C104.699 180.261 111.699 175.915 119.506 177.224C127.312 178.535 148.095 177.256 154.438 178.32C160.781 179.384 170.429 171.215 181.29 169.274C192.151 167.332 203.498 166.979 206.913 167.552C210.328 168.125 212.281 168.452 212.281 168.452C212.281 168.452 209.653 154.207 201.079 146.995C192.506 139.784 180.354 131.47 175.395 129.634C170.435 127.797 158.481 124.285 158.481 124.285L156.933 129.064L143.874 130.618L83.1087 135.477Z" fill="#F3F3F3"/>
<path fill-rule="evenodd" clip-rule="evenodd" d="M59.0834 88.7959C59.0834 88.7959 48.3493 86.9938 46.6104 77.9188C44.8701 68.8418 45.0815 61.6001 43.6222 56.837C42.1643 52.0747 38.9537 50.2804 40.1394 43.2006C41.3259 36.1223 53.6126 31.6584 53.6126 31.6584C53.6126 31.6584 55.0458 23.1147 61.5179 17.424C67.9907 11.7341 72.8762 6.53035 76.501 2.87273C80.1237 -0.785247 88.827 -0.328705 95.9013 0.8595C102.977 2.04664 112.933 9.99243 120.695 14.5585C128.458 19.1239 128.906 19.45 128.906 19.45C128.906 19.45 144.921 27.1574 147.275 31.0668C149.631 34.9755 150.346 50.1548 151.479 55.3645C152.613 60.5732 155.169 66.2734 154.883 67.9828C154.596 69.6916 151.664 73.7163 151.664 73.7163C151.664 73.7163 135.729 67.027 123.896 64.287C112.064 61.5492 104.014 60.1969 97.5051 61.6146C90.9956 63.0313 62.5616 69.554 60.1985 73.172C57.8362 76.7908 59.0834 88.7959 59.0834 88.7959Z" fill="#F3F3F3"/>
<path fill-rule="evenodd" clip-rule="evenodd" d="M59.0834 88.7958C59.0834 88.7958 63.4957 108.862 64.1018 112.728C64.708 116.596 69.052 122.094 73.5194 128.365C77.9879 134.636 78.3901 138.217 80.6252 139.847C82.8596 141.477 85.6245 142.945 87.8193 143.315C90.0159 143.682 92.204 151.58 91.9577 153.044C91.7128 154.509 89.0217 160.081 93.1699 160.777C97.3171 161.473 120.863 163.167 130.388 155.73C139.913 148.294 150.174 136.463 154.651 132.194C159.129 127.927 156.931 129.065 156.931 129.065C156.931 129.065 144.9 123.029 143.281 116.231C141.661 109.434 143.265 92.3855 143.265 92.3855C143.265 92.3855 149.291 86.3702 150.271 82.017C151.252 77.6634 150.866 74.4415 151.052 73.9913C151.069 73.9513 151.044 73.7565 150.984 73.4361C147.827 72.1397 134.281 66.6916 123.895 64.2873C112.063 61.5494 104.013 60.1972 97.5041 61.6149C90.9946 63.0315 62.5605 69.5543 60.1975 73.1723C57.8362 76.7906 59.0834 88.7958 59.0834 88.7958Z" fill="#B1995F"/>
<path fill-rule="evenodd" clip-rule="evenodd" d="M91.7727 121.382C84.8765 122.86 77.5803 120.003 77.5803 120.003C71.0598 113.262 78.6247 113.026 79.6631 112.071C80.7015 111.116 84.0368 109.919 89.5482 109.212C95.0597 108.506 106.079 110.857 106.747 112.013C107.415 113.167 105.099 114.458 102.861 116.592C100.621 118.724 98.6668 119.903 91.7727 121.382ZM117.972 106.455C115.712 110.217 113.534 111.233 113.534 111.233C113.534 111.233 113.03 108.261 111.038 106.672C109.048 105.082 107.359 105.426 103.782 104.325C100.204 103.222 96.9322 101.042 95.2032 101.63C93.4742 102.217 89.0407 103.23 84.4436 103.714C79.8476 104.198 76.8985 105.334 74.5171 107.57C72.1363 109.805 72.9072 111.189 72.8015 114.059C72.6972 116.927 72.8581 118.209 70.4759 120.444C69.9589 120.93 69.6125 121.701 69.3881 122.61C70.6742 124.429 72.0911 126.357 73.5201 128.365C77.9885 134.636 78.3907 138.217 80.6258 139.847C82.8602 141.478 85.6251 142.945 87.82 143.315C87.82 143.315 99.9187 141.574 104.556 140.847C109.192 140.119 122.619 134.844 126.366 130.453C130.111 126.061 133.457 116.584 135.14 102.059C136.178 93.1017 135.599 77.8644 135.003 67.4959C133.543 67.011 132.059 66.5386 130.581 66.0923C130.899 70.228 131.114 74.4557 130.837 76.1121C130.223 79.774 129.418 90.5566 127.953 91.8162C126.488 93.0762 124.166 94.9459 122.334 97.6504C120.502 100.354 120.235 102.694 117.972 106.455Z" fill="#231F20"/>
<path fill-rule="evenodd" clip-rule="evenodd" d="M76.9781 116.889C76.9781 116.889 68.9622 119.811 61.2719 123.79C53.5819 127.77 36.1643 136.643 31.9935 139.08C27.8233 141.517 21.4332 147.472 15.4987 143.966C9.56496 140.46 7.70237 132.117 7.42281 127.803C7.14253 123.489 6.94922 114.17 6.94922 114.17C6.94922 114.17 16.9553 112.085 22.7088 113.677C28.4623 115.272 30.128 115.801 30.128 115.801L29.0222 123.146C29.0222 123.146 27.5158 125.403 28.7956 125.995C30.0761 126.585 31.4587 126.566 37.0129 124.864C42.5657 123.161 71.5547 115.39 75.0091 115.073C78.465 114.756 81.1903 114.209 76.9781 116.889Z" fill="#231F20"/>
<path fill-rule="evenodd" clip-rule="evenodd" d="M22.7092 113.678C16.9556 112.085 6.94958 114.17 6.94958 114.17C6.94958 114.17 7.1429 123.489 7.42317 127.803C7.70274 132.117 9.56532 140.46 15.4991 143.967C21.4336 147.472 27.8237 141.517 31.9938 139.08C34.1979 137.792 40.1012 134.707 46.3135 131.496C43.9424 128.667 43.0704 125.379 42.7523 123.227C40.1645 123.942 38.121 124.524 37.014 124.864C31.4598 126.566 30.0772 126.585 28.7967 125.996C27.5169 125.404 29.0232 123.146 29.0232 123.146L30.1291 115.801C30.1284 115.801 28.4627 115.272 22.7092 113.678Z" fill="#B1995F"/>
<path fill-rule="evenodd" clip-rule="evenodd" d="M77.1965 114.539C77.2248 114.857 79.1411 113.799 82.3634 113.65C85.5863 113.501 103.248 112.135 103.248 112.135C103.248 112.135 93.5965 114.719 87.567 115.528C81.5363 116.333 77.3644 115.845 76.2811 116.268C75.1965 116.69 77.2262 114.584 77.1965 114.539Z" fill="#8A7439"/>
<path fill-rule="evenodd" clip-rule="evenodd" d="M90.1208 164.641C90.1208 164.641 88.8789 166.817 85.241 164.575C81.6045 162.334 76.503 158.339 72.1936 157.114C67.8842 155.89 64.0827 155.376 61.6016 155.211C59.1205 155.046 55.5427 154.696 53.7529 154.897C51.9631 155.099 48.122 154.077 48.122 154.077L46.0884 153.485C46.0884 153.485 48.8483 157.964 51.1471 158.476C53.4444 158.986 59.5217 160.133 62.593 160.522C65.6636 160.912 73.0447 161.021 76.1139 162.916C79.1824 164.812 83.5498 167.931 86.578 169.317C89.6076 170.703 90.8263 171.662 93.0027 171.4C95.1785 171.136 96.5211 169.857 98.9206 169.757C101.321 169.657 108.032 169.278 111.509 169.485C114.985 169.692 118.767 170.327 120.536 170.247C122.306 170.168 124.257 169.743 124.257 169.743L126.885 166.043C126.885 166.043 122.027 165.102 118.773 165.057C115.518 165.013 107.709 166.714 105.553 166.854C103.398 166.994 97.5829 167.273 95.5086 166.926C93.4336 166.578 90.1208 164.641 90.1208 164.641Z" fill="#03658C"/>
<path fill-rule="evenodd" clip-rule="evenodd" d="M160.767 130.82C160.767 130.82 162.007 130.902 166.721 133.452C171.437 135.999 181.174 140.016 179.404 140.849C177.633 141.682 173.324 140.457 170.274 139.192C167.225 137.927 162.875 136.193 161.392 134.564C159.91 132.935 158.04 132.871 158.04 132.871L160.767 130.82Z" fill="#03658C"/>
<path fill-rule="evenodd" clip-rule="evenodd" d="M153.416 138.747C153.416 138.747 163.415 144.943 168.03 145.842C172.645 146.742 175.451 147.214 178.866 147.787C182.282 148.361 186.044 149.117 189.215 149.649C192.386 150.182 197.975 153.503 197.975 153.503C197.975 153.503 190.573 152.764 186.406 152.19C182.239 151.616 175.305 150.327 172.378 149.835C169.45 149.344 165.019 148.85 162.986 148.259C160.951 147.666 156.053 145.463 154.042 143.997C152.031 142.531 151.197 141.511 151.197 141.511L153.416 138.747Z" fill="#03658C"/>
<path fill-rule="evenodd" clip-rule="evenodd" d="M142.914 149.031C142.914 149.031 147.79 152.861 153.827 154.251C159.866 155.642 159.928 154.522 164.32 155.258C168.711 155.996 170.481 155.163 175.931 155.577C181.379 155.99 186.016 155.262 190.449 155.755C194.882 156.247 204.232 159.575 204.232 159.575C204.232 159.575 185.71 156.34 181.521 157.393C177.331 158.447 173.526 160.194 169.276 160.108C165.027 160.021 160.694 159.67 157.727 159.423C154.757 159.176 151.787 160.434 147.723 157.744C143.659 155.055 140.185 152.589 140.185 152.589C140.185 152.589 142.928 149.042 142.914 149.031Z" fill="#03658C"/>
<path fill-rule="evenodd" clip-rule="evenodd" d="M132.858 160.394C133.712 160.536 137.185 163.755 142.269 163.355C147.353 162.952 148.636 162.038 153.271 162.816C157.906 163.595 165.918 163.683 168.725 163.402C171.531 163.12 173.463 162.816 173.463 162.816C173.463 162.816 163.701 165.696 161.136 166.772C158.572 167.847 153.57 168.513 148.263 167.999C142.955 167.485 139.783 167.706 136.693 167.437C133.603 167.17 129.029 166.025 129.029 166.025L132.858 160.394Z" fill="#03658C"/>
<path fill-rule="evenodd" clip-rule="evenodd" d="M88.2307 146.001L87.9794 143.354C87.9271 143.336 87.8737 143.323 87.82 143.315C86.2536 143.05 84.398 142.23 82.6531 141.187C82.1742 141.926 81.7392 142.607 81.4416 143.107C80.2756 145.053 65.881 146.895 65.881 146.895C65.881 146.895 73.6484 146.943 77.5347 146.216C81.419 145.487 88.2307 146.001 88.2307 146.001Z" fill="#03658C"/>
<path fill-rule="evenodd" clip-rule="evenodd" d="M53.6129 31.6582C53.6129 31.6582 111.659 22.7537 121.322 24.3755C130.983 25.998 137.713 28.1915 137.713 28.1915C137.713 28.1915 129.35 20.9304 114.651 20.7709C99.9533 20.6107 66.7341 27.2537 61.2018 26.3551C59.3428 26.0528 57.6958 25.2175 56.3029 24.1789C54.1968 28.1774 53.6129 31.6582 53.6129 31.6582Z" fill="#D0D2D3"/>
<path fill-rule="evenodd" clip-rule="evenodd" d="M72.8142 58.2231C74.5917 56.555 76.8946 55.3374 77.9143 53.0707C77.9143 53.0707 78.1235 53.8034 78.2748 53.5968C78.4282 53.3903 78.8919 53.2344 78.7544 51.8785C78.6169 50.5227 77.9666 49.2705 77.9666 49.2705C77.9666 49.2705 77.0795 51.3226 76.7366 51.561C76.3942 51.8 76.0217 51.9906 76.1231 52.2414C76.2252 52.4914 77.0283 52.287 77.0283 52.287C76.6522 53.0275 75.3378 54.6188 74.4312 54.348C74.1075 54.2507 73.4317 53.4391 73.315 53.0805C73.1984 52.722 72.7421 48.7528 72.7421 48.7528L72.0144 43.5519L74.7196 43.0554C74.7196 43.0554 75.1999 42.5858 74.9928 41.8524C74.7836 41.1196 74.4524 41.0641 74.4524 41.0641L72.1053 41.0931C72.1053 41.0931 73.2249 39.6729 72.944 38.5671C72.6637 37.4627 72.0307 36.8053 71.2542 36.6533C70.477 36.5012 69.5871 36.6483 69.0965 37.3273C68.6049 38.007 68.2165 38.8511 68.454 39.4622C68.6922 40.0746 69.4231 40.6627 69.4231 40.6627L69.4167 41.1062L67.1572 41.5302C67.1572 41.5302 66.8582 43.1728 67.1028 43.4253C67.3452 43.6768 67.3452 43.6767 67.3452 43.6767L70.0677 43.8606L70.8534 53.6615C70.8534 53.6615 70.8244 55.1168 69.4874 54.5962C68.1496 54.0746 66.6475 52.8917 66.6475 52.8917L67.4537 52.7516C66.6193 51.9974 65.3918 50.0609 64.9998 49.8009C64.264 51.6038 64.4813 53.0473 65.3808 54.5824L65.9311 53.6605C65.9311 53.6605 66.0686 55.0163 67.1282 55.5959C68.1878 56.177 70.9587 57.6576 71.4659 58.1661C71.9731 58.6747 72.3491 58.6312 72.8142 58.2231ZM71.5041 39.9742C71.5041 39.9742 71.5793 39.4155 71.5309 39.2379C71.4818 39.0611 71.3086 39.0633 70.9806 39.0293C70.6541 38.9954 70.2324 39.39 70.1709 39.3476C70.1101 39.3062 69.821 39.2793 69.821 39.2793C69.821 39.2793 69.6733 39.0951 69.6132 38.6736C69.5538 38.2503 70.0688 37.6809 70.7184 37.6417C71.3694 37.6031 71.8317 38.083 72.043 38.6792C72.2544 39.2744 71.5041 39.9742 71.5041 39.9742Z" fill="#03658C"/>
<path fill-rule="evenodd" clip-rule="evenodd" d="M26.1301 115.408C26.1301 115.408 19.6757 114.262 15.4458 114.43C11.2155 114.598 10.1987 114.678 10.1987 114.678C10.1987 114.678 21.686 116.858 26.1301 115.408Z" fill="#231F20"/>
</svg>
