<svg width="155" height="228" viewBox="0 0 155 228" fill="none" xmlns="http://www.w3.org/2000/svg">
<path fill-rule="evenodd" clip-rule="evenodd" d="M49.0644 119.133C49.0644 119.133 43.1864 141.594 43.1864 149.358C43.1864 157.123 43.5243 162.523 48.2476 168.6C52.9701 174.677 69.1659 190.881 69.1659 190.881L87.0478 189.868C87.0478 189.868 99.1935 181.429 101.892 173.327C104.592 165.225 103.916 142.944 103.916 142.944C103.916 142.944 107.488 121.928 109.315 121.339C111.144 120.751 129.221 127.415 140.018 130.116C150.815 132.817 154.526 134.843 154.526 134.843C154.526 134.843 138.331 166.913 132.932 172.314C127.535 177.715 117.413 187.505 104.254 190.543C91.096 193.582 78.95 195.945 78.95 195.945C78.95 195.945 57.0191 191.556 40.8241 183.792C24.6294 176.028 8.77194 156.785 5.06089 151.384C1.34949 145.983 1.0116 144.97 1.0116 144.97C1.0116 144.97 22.2667 135.18 33.4009 131.129C44.5362 127.078 49.0644 119.133 49.0644 119.133Z" fill="#F3F3F3"/>
<path fill-rule="evenodd" clip-rule="evenodd" d="M46.3436 74.918C46.3436 74.918 24.6421 58.7146 22.0511 53.2054C19.4604 47.6961 17.1928 47.6961 23.023 39.9183C28.8533 32.1402 67.3966 -1.56417 88.4502 0.05653C109.504 1.67687 117.925 3.62114 122.135 9.77824C126.346 15.9357 128.289 28.2509 126.346 33.1123C124.404 37.9734 118.573 50.9361 118.573 50.9361C118.573 50.9361 113.39 34.0841 96.2243 39.918C79.057 45.7508 50.5544 67.4642 50.5544 67.4642C50.5544 67.4642 43.1051 68.1127 46.3436 74.918Z" fill="#F3F3F3"/>
<path fill-rule="evenodd" clip-rule="evenodd" d="M46.3436 74.9181C46.3436 74.9181 48.6109 82.048 51.5256 85.9365C54.4407 89.8262 58.0041 88.5297 58.0041 88.5297L59.9465 87.8812C59.9465 87.8812 59.9465 95.0111 64.8055 101.817C69.6638 108.623 84.239 119.641 93.3085 119.965C102.378 120.289 102.702 116.724 104.645 111.215C106.588 105.706 110.152 101.168 113.066 93.7147C115.981 86.2615 117.277 77.1866 117.277 77.1866C117.277 77.1866 123.755 75.8902 123.43 69.4092C123.106 62.9275 118.221 51.7226 118.573 50.9365C118.573 50.9365 113.39 34.0845 96.2243 39.9184C79.057 45.7512 50.5544 67.4646 50.5544 67.4646C50.5544 67.4646 43.1051 68.1128 46.3436 74.9181Z" fill="#EABAA7"/>
<path fill-rule="evenodd" clip-rule="evenodd" d="M61.5759 75.7653C62.0823 73.571 69.3362 64.2875 76.084 56.3541C79.0273 52.8934 79.7565 49.947 79.9219 47.7795C65.2693 56.2551 50.5544 67.4649 50.5544 67.4649C50.5544 67.4649 50.5088 67.4684 50.4258 67.4797C55.5318 72.5168 61.2002 77.3931 61.5759 75.7653Z" fill="#A7752B"/>
<path fill-rule="evenodd" clip-rule="evenodd" d="M84.4988 45.2274C87.9281 47.2697 92.5352 51.4401 97.509 57.536C104.256 65.8067 117.277 77.1866 117.277 77.1866C117.277 77.1866 123.755 75.8902 123.43 69.4092C123.106 62.9275 118.221 51.7226 118.573 50.9365C118.573 50.9365 113.39 34.0845 96.2243 39.9184C92.6818 41.1218 88.6559 43.0017 84.4988 45.2274Z" fill="#A7752B"/>
<path fill-rule="evenodd" clip-rule="evenodd" d="M58.0045 88.5298C58.0045 88.5298 54.4411 89.8262 51.526 85.9366C50.2773 84.271 49.1478 82.0096 48.2631 79.9688C47.7786 82.6585 46.9505 86.5753 45.5491 91.7999C42.5506 102.985 47.0675 120.832 47.0675 120.832C47.0675 120.832 59.3825 111.211 60.2258 102.097C60.687 97.1079 59.6331 91.9682 58.5837 88.336L58.0045 88.5298Z" fill="#A7752B"/>
<path fill-rule="evenodd" clip-rule="evenodd" d="M112.354 124.207C110.414 119.202 108.413 111.229 107.134 105.713C106.173 107.538 105.314 109.319 104.645 111.215C102.702 116.724 102.378 120.289 93.3085 119.965C92.3302 119.93 91.2886 119.771 90.2014 119.506C90.1792 120.635 90.0979 121.709 89.9169 122.52C89.2638 125.447 88.7365 125.389 86.881 130.791C85.0254 136.192 86.3748 138.386 86.3748 143.112C86.3748 147.838 88.9047 148.513 94.4713 153.24C100.039 157.966 108.473 153.578 108.473 153.578C108.473 153.578 109.148 151.552 112.86 142.1C116.573 132.647 115.56 132.478 112.354 124.207Z" fill="#A7752B"/>
<path fill-rule="evenodd" clip-rule="evenodd" d="M41.4991 172.651C26.7115 164.272 15.0142 149.887 8.94792 141.379C7.60982 141.977 6.38518 142.528 5.31958 143.009C10.7851 151.005 23.2517 167.328 39.4075 176.482C52.3036 183.791 61.338 186.939 66.5996 188.293C64.925 186.596 62.5987 184.223 60.13 181.659C55.2204 179.757 49.0156 176.911 41.4991 172.651Z" fill="#03658C"/>
<path fill-rule="evenodd" clip-rule="evenodd" d="M14.3303 138.997C20.8211 147.578 31.458 159.636 44.4973 167.025C46.0315 167.895 47.5124 168.706 48.9374 169.462C48.6868 169.156 48.4561 168.868 48.2479 168.6C46.5139 166.37 45.3713 164.231 44.6188 162.032C33.5327 155.234 24.3176 145.239 18.1099 137.353C16.828 137.906 15.5603 138.458 14.3303 138.997Z" fill="#03658C"/>
<path fill-rule="evenodd" clip-rule="evenodd" d="M24.0912 134.813C29.1856 140.803 35.6983 147.41 43.2239 152.738C43.1939 151.658 43.1865 150.535 43.1865 149.358C43.1865 148.785 43.2183 148.132 43.2777 147.415C37.4969 143.046 32.3682 137.99 28.0899 133.175C26.7995 133.693 25.4572 134.244 24.0912 134.813Z" fill="#03658C"/>
<path fill-rule="evenodd" clip-rule="evenodd" d="M35.7583 130.173C38.4034 133.082 41.35 136.053 44.5545 138.884C44.855 137.297 45.1875 135.665 45.5321 134.054C43.4144 132.127 41.4168 130.148 39.5517 128.177C38.403 128.878 37.1399 129.554 35.7583 130.173Z" fill="#03658C"/>
<path fill-rule="evenodd" clip-rule="evenodd" d="M128.657 126.819C126.872 126.261 125.086 125.694 123.361 125.146C120.65 126.903 117.746 128.648 114.694 130.29C115.221 131.972 115.385 133.358 115.078 135.174C120.046 132.548 124.634 129.637 128.657 126.819Z" fill="#03658C"/>
<path fill-rule="evenodd" clip-rule="evenodd" d="M135.181 128.797C129.158 133.316 121.38 138.45 112.724 142.446C111.742 144.948 110.979 146.913 110.389 148.45C122.539 143.425 133.263 135.838 140.296 130.186C140.203 130.163 140.111 130.139 140.018 130.116C138.525 129.742 136.892 129.293 135.181 128.797Z" fill="#03658C"/>
<path fill-rule="evenodd" clip-rule="evenodd" d="M149.902 132.984C141.955 139.828 125.06 152.83 106.372 157.787C105.499 158.018 104.641 158.239 103.802 158.45C103.732 160.069 103.639 161.704 103.512 163.29C104.797 162.978 106.122 162.642 107.489 162.28C129.245 156.509 148.57 139.836 154.177 134.668C153.596 134.391 152.255 133.796 149.902 132.984Z" fill="#03658C"/>
<path fill-rule="evenodd" clip-rule="evenodd" d="M147.175 148.921C138.226 156.001 123.936 165.675 108.407 169.794C106.326 170.346 104.339 170.837 102.446 171.275C102.28 172.028 102.096 172.718 101.893 173.326C101.544 174.372 101.039 175.424 100.422 176.463C103.226 175.87 106.258 175.153 109.526 174.287C121.887 171.008 133.462 164.209 142.184 158.001C143.876 155.009 145.588 151.879 147.175 148.921Z" fill="#03658C"/>
<path fill-rule="evenodd" clip-rule="evenodd" d="M134.234 170.783C127.285 174.899 119.363 178.67 111.089 180.864C104.218 182.686 98.386 183.849 93.5249 184.573C90.1245 187.73 87.0478 189.868 87.0478 189.868L81.8545 190.162C87.7222 190.119 97.6254 189.225 112.208 185.357C115.474 184.49 118.685 183.378 121.805 182.096C126.514 178.655 130.289 174.959 132.932 172.314C133.316 171.931 133.752 171.414 134.234 170.783Z" fill="#03658C"/>
<path fill-rule="evenodd" clip-rule="evenodd" d="M86.3367 141.723C86.131 137.899 85.2171 135.634 86.8814 130.791C88.7369 125.389 89.2642 125.447 89.9174 122.52C90.0983 121.709 90.1796 120.635 90.2019 119.506C81.2091 117.313 69.1405 107.889 64.8063 101.817C59.9473 95.0107 59.9473 87.8811 59.9473 87.8811L58.5844 88.3362C59.6338 91.9684 60.6874 97.1081 60.2265 102.097C59.5974 108.894 52.5878 115.973 49.0651 119.133C49.0651 119.133 47.1703 126.375 45.5329 134.054C45.429 134.54 45.3258 135.028 45.225 135.516C44.9911 136.646 44.7652 137.776 44.5553 138.884C43.9491 142.074 43.4709 145.087 43.2783 147.415C43.2189 148.133 43.1871 148.785 43.1871 149.358C43.1871 150.536 43.1946 151.659 43.2246 152.738C43.319 156.164 43.6335 159.149 44.6192 162.033C45.3717 164.231 46.514 166.371 48.2483 168.601C48.4565 168.869 48.6873 169.156 48.9378 169.462C51.4568 172.531 55.9927 177.361 60.1311 181.659C62.5995 184.223 64.9257 186.597 66.6007 188.294C68.1706 189.885 69.1666 190.882 69.1666 190.882L81.8552 190.162L87.0486 189.868C87.0486 189.868 90.1252 187.73 93.5256 184.574C96.0098 182.268 98.6655 179.419 100.423 176.463C101.039 175.424 101.545 174.373 101.893 173.326C102.096 172.718 102.28 172.028 102.447 171.275C102.94 169.045 103.28 166.25 103.512 163.29C103.639 161.704 103.733 160.07 103.803 158.451C103.851 157.324 103.889 156.205 103.917 155.113C101.058 155.69 97.3751 155.704 94.4724 153.241C88.9058 148.514 86.376 147.839 86.376 143.112C86.3752 142.624 86.3608 142.163 86.3367 141.723Z" fill="#EABAA7"/>
<path fill-rule="evenodd" clip-rule="evenodd" d="M113.814 26.4694C113.814 26.4694 115.141 24.6397 115.965 23.7432C116.79 22.8461 116.898 22.7202 117.041 22.0928C117.184 21.4655 117.202 21.3753 117.202 21.3753C117.202 21.3753 117.543 21.967 117.632 21.7703C117.722 21.573 118.099 21.3753 117.686 20.2455C117.274 19.1156 116.432 18.1467 116.432 18.1467C116.432 18.1467 116.09 20.0121 115.84 20.2631C115.589 20.5146 115.303 20.7296 115.445 20.9269C115.589 21.1239 116.252 20.8371 116.252 20.8371C116.252 20.8371 115.929 22.1112 115.427 22.4161C114.926 22.7202 114.71 22.9897 114.405 22.9543C114.1 22.9182 113.329 22.3262 113.151 22.0394C112.97 21.7519 111.716 18.4518 111.716 18.4518L109.959 14.1467L112.236 13.3394C112.236 13.3394 112.559 12.8733 112.218 12.2813C111.877 11.689 111.573 11.689 111.573 11.689L109.511 12.0483C109.511 12.0483 110.192 10.685 109.708 9.78784C109.223 8.89103 108.525 8.42494 107.807 8.40691C107.09 8.38887 106.337 8.6396 106.05 9.28534C105.763 9.93107 105.602 10.7023 105.942 11.1865C106.283 11.6706 107.054 12.0656 107.054 12.0656L107.144 12.4426L105.244 13.1237C105.244 13.1237 105.334 14.5591 105.602 14.7383C105.87 14.918 105.87 14.918 105.87 14.918L108.308 14.6846L111.106 22.8818C111.106 22.8818 111.393 24.1199 110.102 23.8691C108.811 23.6177 107.233 22.8287 107.233 22.8287L107.914 22.5953C107.914 22.5953 106.337 21.6805 105.923 21.1423C105.512 20.6041 105.118 20.4431 105.118 20.4431C105.118 20.4431 104.903 21.788 105.297 22.7029C105.692 23.6177 106.48 24.4434 106.48 24.4434L106.767 23.582C106.767 23.582 107.18 24.7126 108.238 25.0535C109.295 25.3936 112.056 26.2551 112.612 26.6133C113.168 26.9719 113.491 26.8821 113.814 26.4694ZM107.894 9.05159C108.482 9.05159 109.053 9.63791 109.168 10.3611C109.283 11.0846 108.901 11.6702 108.314 11.6702C107.725 11.6702 107.157 11.0846 107.04 10.3611C106.924 9.63756 107.306 9.05159 107.894 9.05159Z" fill="#03658C"/>
<path fill-rule="evenodd" clip-rule="evenodd" d="M77.4365 39.7923C61.4638 46.1269 44.51 64.6191 39.8698 69.9197C40.6865 70.5661 41.4588 71.1712 42.1653 71.7214C48.5133 64.7372 63.5787 49.3549 77.8588 43.6915C96.2257 36.407 105.503 27.3363 121.929 43.3962C122.277 42.6072 122.634 41.7974 122.988 40.9887C122.82 40.8154 122.649 40.6417 122.479 40.4667C105.439 23.0818 96.1614 32.3653 77.4365 39.7923Z" fill="#03658C"/>
<path fill-rule="evenodd" clip-rule="evenodd" d="M76.2388 209.73C78.2884 212.5 81.3933 215.893 86.1014 219.778C99.5972 230.918 114.78 226.867 114.78 226.867C114.78 226.867 97.2345 211.338 92.5116 205.937C87.7879 200.535 86.1014 200.198 86.1014 200.198C86.1014 200.198 92.5936 196.897 98.181 191.916C87.5854 194.264 78.9503 195.945 78.9503 195.945C78.9503 195.945 57.0195 191.556 40.8245 183.792L69.0005 199.703C67.9052 201.057 59.01 199.671 56.4105 203.574C53.8103 207.477 44.4323 213.28 44.4323 213.28C44.4323 213.28 51.6024 219.862 64.9289 214.63C69.6611 212.772 73.3926 211.106 76.2388 209.73Z" fill="#03658C"/>
<path fill-rule="evenodd" clip-rule="evenodd" d="M23.2806 177.866C31.0403 185.8 56.6822 197.446 56.6822 197.446C56.6822 197.446 54.826 197.446 53.9827 201.666C53.1394 205.886 44.4322 213.28 44.4322 213.28C44.4322 213.28 53.8098 207.476 56.4104 203.574C59.0099 199.671 67.9051 201.057 69.0004 199.703L40.8243 183.792C24.6297 176.027 8.77221 156.785 5.06116 151.383C1.34976 145.982 1.01189 144.969 1.01189 144.969L0 149.678C0 149.678 3.88034 157.105 7.92927 162.675C11.9778 168.245 15.52 169.933 23.2806 177.866Z" fill="#231F20"/>
<path fill-rule="evenodd" clip-rule="evenodd" d="M45.5488 91.7997C46.9501 86.5751 47.7782 82.6583 48.2628 79.9685C47.0841 77.2473 46.3436 74.918 46.3436 74.918C46.3436 74.918 44.6556 73.658 42.1653 71.7215C41.4585 71.1709 40.6862 70.5658 39.8698 69.9197C34.34 65.5449 26.7705 59.2789 23.4613 55.2737C24.4417 58.9854 25.7957 62.7035 27.5548 64.5346C31.7726 68.9232 41.0513 72.6363 42.2322 77.0246C43.4123 81.4138 40.3763 88.6718 40.5449 94.9166C40.6922 100.376 39.305 115.029 41.1174 127.159C46.6801 123.316 49.0644 119.133 49.0644 119.133C47.8634 120.21 47.0675 120.832 47.0675 120.832C47.0675 120.832 42.5502 102.985 45.5488 91.7997Z" fill="#231F20"/>
<path fill-rule="evenodd" clip-rule="evenodd" d="M90.2014 119.506C81.2086 117.313 69.14 107.889 64.8058 101.817C59.9468 95.0107 59.9468 87.8811 59.9468 87.8811L58.584 88.3362C59.6333 91.9684 60.6869 97.1081 60.226 102.097C60.1893 102.501 60.1288 102.908 60.0479 103.314L62.165 102.557C62.165 102.557 64.4428 107.706 72.54 113.782C78.2882 118.096 86.0351 120.665 90.0455 121.794C90.1385 121.112 90.1855 120.324 90.2014 119.506Z" fill="#C89C8C"/>
</svg>
