<svg width="18" height="20" viewBox="0 0 18 20" fill="none" xmlns="http://www.w3.org/2000/svg">
<path d="M6.95455 3.3H11.0455C11.0455 2.75299 10.83 2.22839 10.4464 1.84159C10.0628 1.4548 9.54249 1.2375 9 1.2375C8.45751 1.2375 7.93724 1.4548 7.55365 1.84159C7.17005 2.22839 6.95455 2.75299 6.95455 3.3ZM5.72727 3.3C5.72727 2.42479 6.07208 1.58542 6.68583 0.966548C7.29959 0.347678 8.13202 0 9 0C9.86798 0 10.7004 0.347678 11.3142 0.966548C11.9279 1.58542 12.2727 2.42479 12.2727 3.3H17.3864C17.5491 3.3 17.7052 3.36519 17.8203 3.48123C17.9353 3.59727 18 3.75465 18 3.91875C18 4.08285 17.9353 4.24023 17.8203 4.35627C17.7052 4.47231 17.5491 4.5375 17.3864 4.5375H16.3145L15.3188 16.585C15.2464 17.4614 14.8499 18.2784 14.2081 18.8739C13.5663 19.4694 12.726 19.7999 11.8538 19.8H6.14618C5.27399 19.7999 4.43368 19.4694 3.79187 18.8739C3.15006 18.2784 2.75362 17.4614 2.68118 16.585L1.68545 4.5375H0.613636C0.45089 4.5375 0.294809 4.47231 0.17973 4.35627C0.0646507 4.24023 0 4.08285 0 3.91875C0 3.75465 0.0646507 3.59727 0.17973 3.48123C0.294809 3.36519 0.45089 3.3 0.613636 3.3H5.72727ZM7.77273 8.04375C7.77273 7.87965 7.70808 7.72227 7.593 7.60623C7.47792 7.49019 7.32184 7.425 7.15909 7.425C6.99634 7.425 6.84026 7.49019 6.72518 7.60623C6.61011 7.72227 6.54545 7.87965 6.54545 8.04375V15.0563C6.54545 15.2204 6.61011 15.3777 6.72518 15.4938C6.84026 15.6098 6.99634 15.675 7.15909 15.675C7.32184 15.675 7.47792 15.6098 7.593 15.4938C7.70808 15.3777 7.77273 15.2204 7.77273 15.0563V8.04375ZM10.8409 7.425C10.6782 7.425 10.5221 7.49019 10.407 7.60623C10.2919 7.72227 10.2273 7.87965 10.2273 8.04375V15.0563C10.2273 15.2204 10.2919 15.3777 10.407 15.4938C10.5221 15.6098 10.6782 15.675 10.8409 15.675C11.0037 15.675 11.1597 15.6098 11.2748 15.4938C11.3899 15.3777 11.4545 15.2204 11.4545 15.0563V8.04375C11.4545 7.87965 11.3899 7.72227 11.2748 7.60623C11.1597 7.49019 11.0037 7.425 10.8409 7.425Z" fill="#03658C"/>
</svg>
