<svg xmlns="http://www.w3.org/2000/svg" width="30" height="30" fill="none" viewBox="0 0 30 30">
  <g clip-path="url(#a)">
    <path fill="#BEBEBE" d="M18.462 26.235s-1.094.364-1.944.364c-.486 0-.729-.121-.729-.121-.364-.243-.85-.608.122-2.672l1.822-3.765c1.093-2.187 1.214-4.373.486-6.073-.608-1.336-1.944-2.308-3.644-2.672-.607-.122-1.215-.122-1.822-.122-3.522 0-5.83 2.065-5.951 2.065-.122.121-.243.364-.365.607 0 .243 0 .486.122.607.121.243.243.365.486.365.242.121.485.121.607 0 0 0 1.093-.364 1.943-.364.486 0 .729.12.729.12.364.244.85.608-.122 2.673l-1.7 3.887c-1.093 2.186-1.215 4.372-.486 6.072.607 1.337 1.944 2.308 3.644 2.673.607.121 1.214.121 1.822.121 3.522 0 5.83-2.065 5.951-2.065.122-.121.243-.364.365-.607 0-.243 0-.486-.122-.607-.121-.243-.243-.365-.486-.365-.364-.121-.607-.121-.729-.121ZM16.883 9.352c2.55 0 4.736-2.065 4.736-4.737C21.498 2.065 19.433 0 16.883 0c-2.551 0-4.737 2.065-4.737 4.737 0 2.55 2.064 4.615 4.737 4.615Z"/>
  </g>
  <defs>
    <clipPath id="a">
      <path fill="#fff" d="M0 0h30v30H0z"/>
    </clipPath>
  </defs>
</svg>
