<svg xmlns="http://www.w3.org/2000/svg" width="30" height="30" fill="none" viewBox="0 0 30 30">
  <path fill="#BEBEBE" d="M15 15c-2.063 0-3.828-.734-5.297-2.203C8.234 11.328 7.5 9.562 7.5 7.5c0-2.063.734-3.828 2.203-5.297C11.172.734 12.938 0 15 0c2.063 0 3.828.734 5.297 2.203C21.766 3.672 22.5 5.438 22.5 7.5c0 2.063-.734 3.828-2.203 5.297C18.828 14.266 17.062 15 15 15ZM0 30v-5.25c0-1.063.274-2.04.821-2.93A5.463 5.463 0 0 1 3 19.78a27.877 27.877 0 0 1 5.906-2.18c2-.485 4.031-.727 6.094-.726 2.063 0 4.094.242 6.094.727A27.94 27.94 0 0 1 27 19.782a5.473 5.473 0 0 1 2.18 2.04A5.47 5.47 0 0 1 30 24.75V30H0Z"/>
</svg>
