<svg width="205" height="218" viewBox="0 0 205 218" fill="none" xmlns="http://www.w3.org/2000/svg">
<path d="M201.813 106.921C199.678 104.61 196.801 103.302 193.663 103.171C193.401 103.171 193.096 103.171 192.791 103.171L164.852 104.217C163.98 103.084 162.759 102.255 161.365 101.819C159.839 94.9734 157.137 88.4328 153.388 82.5028C153.911 81.4999 154.216 80.3662 154.216 79.1889C154.216 78.8837 154.216 78.6221 154.173 78.3168L174.659 59.3057C176.969 57.1691 178.276 54.2913 178.407 51.1518C178.538 48.0124 177.405 45.0473 175.269 42.7363C170.867 37.9835 163.457 37.7219 158.706 42.1259C158.488 42.3003 158.313 42.5183 158.096 42.7363L139.092 63.23C137.697 63.0556 136.215 63.3172 134.907 63.9713C132.902 62.7067 130.854 61.5295 128.718 60.5266C128.238 60.3086 127.759 60.0469 127.236 59.8289L126.974 59.6981C126.582 59.5237 126.19 59.3493 125.797 59.1749C125.667 59.1313 125.58 59.0877 125.449 59.0441L125.318 59.0005C124.969 58.8697 124.664 58.7388 124.315 58.608L123.792 58.39C123.487 58.2592 123.139 58.172 122.834 58.0412C122.659 57.9976 122.485 57.9104 122.267 57.8668C121.962 57.7359 121.613 57.6487 121.308 57.5615H121.264L120.741 57.3871C120.393 57.2999 120.088 57.1691 119.739 57.0819L119.608 57.0383C119.477 56.9947 119.347 56.9511 119.216 56.9075C118.867 56.8203 118.475 56.6895 118.126 56.6023L117.995 56.5586C117.908 56.515 117.777 56.515 117.69 56.4714C117.211 56.3406 116.688 56.2098 116.165 56.079H116.121C115.947 56.0354 115.729 55.9918 115.554 55.9482C115.119 54.5529 114.29 53.332 113.157 52.4599L114.203 24.51C114.203 24.292 114.203 23.9868 114.203 23.638C114.072 20.4985 112.765 17.6207 110.455 15.4841C108.145 13.3476 105.181 12.2575 102.042 12.3447C98.9041 12.4755 96.0274 13.7836 93.8916 16.0946C91.7558 18.4056 90.6662 21.3706 90.7534 24.51L91.7994 52.4599C90.6661 53.332 89.838 54.5529 89.4021 55.9482C82.5589 57.4743 76.0209 60.1778 70.093 63.9277C68.7854 63.23 67.3471 63.012 65.9087 63.1864L46.8611 42.6927C46.7303 42.5619 46.5123 42.3003 46.2508 42.0823C43.9407 39.9457 40.9768 38.8556 37.8385 38.9428C34.7003 39.0736 31.8235 40.3817 29.6877 42.6927C25.2854 47.4455 25.5905 54.8581 30.2979 59.2621L50.7839 78.2732C50.7403 78.5784 50.7403 78.8401 50.7403 79.1453C50.7403 80.3226 51.0019 81.4563 51.5685 82.4592C51.3506 82.808 51.089 83.2004 50.8711 83.5493C50.3916 84.3777 49.8686 85.2062 49.4327 86.0783C49.2148 86.4707 49.0404 86.8631 48.8225 87.2119C48.4302 87.9968 48.0379 88.7817 47.6892 89.5665C46.7739 91.5723 45.9457 93.6217 45.2484 95.671C44.9868 96.4995 44.7253 97.3716 44.4638 98.2C44.1151 99.3337 43.8535 100.555 43.592 101.732C42.1972 102.168 40.9768 102.996 40.105 104.13L12.1657 103.084C11.8606 103.084 11.599 103.084 11.2939 103.084C8.15566 103.214 5.27893 104.523 3.14316 106.834C1.00739 109.145 -0.0823248 112.11 0.00484955 115.249C0.266373 121.702 5.71478 126.76 12.1657 126.542L40.105 125.496C40.9768 126.63 42.1972 127.458 43.592 127.894C43.6356 128.156 43.7228 128.374 43.7664 128.635C43.81 128.81 43.8536 128.941 43.8972 129.115L43.9407 129.202C44.0279 129.551 44.1151 129.9 44.2022 130.205C44.2458 130.423 44.333 130.597 44.3766 130.815C44.4638 131.121 44.5509 131.47 44.6381 131.818C44.6817 131.993 44.7689 132.211 44.8125 132.385C44.8997 132.734 45.0304 133.039 45.1176 133.388L45.1611 133.519C45.2047 133.65 45.2483 133.824 45.2919 133.955C45.4227 134.347 45.5535 134.696 45.6842 135.089L45.7278 135.176C45.7714 135.263 45.815 135.394 45.815 135.481C45.9893 136.004 46.2073 136.484 46.3816 137.007L46.4688 137.225C46.6431 137.661 46.8175 138.097 46.9918 138.49C47.0354 138.621 47.079 138.751 47.1662 138.839L47.2098 138.926C47.3405 139.275 47.5149 139.58 47.6456 139.929C47.7328 140.059 47.7764 140.234 47.8636 140.365L47.9072 140.452C48.0379 140.757 48.2123 141.062 48.343 141.368C48.4302 141.542 48.5174 141.716 48.6045 141.891C48.7789 142.196 48.9096 142.501 49.084 142.806L49.1276 142.937C49.1712 143.068 49.2584 143.199 49.3456 143.33C49.5199 143.679 49.6942 143.984 49.9122 144.333L49.9557 144.463C49.9993 144.551 50.0429 144.638 50.0865 144.725C50.566 145.553 51.089 146.382 51.6121 147.21C50.9147 148.519 50.6968 149.957 50.8711 151.396L30.3851 170.451C30.1672 170.626 29.9928 170.844 29.7749 171.062C25.3726 175.814 25.6777 183.227 30.3851 187.631C32.6953 189.767 35.6592 190.858 38.7974 190.77C41.9357 190.64 44.8125 189.331 46.9483 187.02L65.9523 166.527C67.347 166.701 68.829 166.44 70.1366 165.786C76.0645 169.535 82.6026 172.282 89.4458 173.765C89.8816 175.16 90.7098 176.381 91.843 177.253L90.7969 205.203C90.6662 208.343 91.7994 211.308 93.9352 213.619C96.071 215.93 98.9478 217.238 102.086 217.369C102.217 217.369 102.391 217.369 102.522 217.369C105.486 217.369 108.275 216.278 110.498 214.229C112.808 212.092 114.116 209.215 114.247 206.075C114.247 205.726 114.247 205.421 114.247 205.203L113.201 177.253C114.334 176.381 115.162 175.16 115.598 173.765C122.441 172.239 128.979 169.535 134.907 165.786C136.215 166.483 137.653 166.701 139.092 166.527L158.096 187.02C160.231 189.331 163.108 190.64 166.246 190.77C169.385 190.901 172.349 189.767 174.659 187.631C176.969 185.494 178.276 182.616 178.407 179.477C178.538 176.338 177.405 173.373 175.269 171.062C175.051 170.8 174.833 170.582 174.659 170.451L154.173 151.44C154.347 150.045 154.085 148.562 153.432 147.254C157.18 141.324 159.926 134.783 161.408 127.938C162.803 127.502 164.023 126.673 164.895 125.539L192.835 126.586C199.285 126.804 204.734 121.79 204.995 115.293C205.083 112.197 203.949 109.232 201.813 106.921Z" fill="#DB5207"/>
<path d="M201.813 94.5809C199.678 92.2699 196.801 90.9618 193.663 90.831C193.401 90.831 193.096 90.831 192.791 90.831L164.852 91.8775C163.98 90.7438 162.759 89.9153 161.365 89.4793C159.839 82.6335 157.137 76.093 153.388 70.1629C153.911 69.1601 154.216 68.0264 154.216 66.8491C154.216 66.5439 154.216 66.2822 154.173 65.977L174.659 46.9659C176.969 44.8293 178.276 41.9514 178.407 38.812C178.538 35.6725 177.405 32.7075 175.269 30.3965C170.867 25.6437 163.457 25.3821 158.706 29.7861C158.488 29.9605 158.313 30.1785 158.096 30.3965L139.092 50.8902C137.697 50.7158 136.215 50.9774 134.907 51.6314C132.902 50.3669 130.854 49.1896 128.718 48.1867C128.238 47.9687 127.759 47.7071 127.236 47.4891L126.974 47.3583C126.582 47.1839 126.19 47.0095 125.797 46.835C125.667 46.7914 125.58 46.7478 125.449 46.7042L125.318 46.6606C124.969 46.5298 124.664 46.399 124.315 46.2682L123.792 46.0502C123.487 45.9194 123.139 45.8322 122.834 45.7014C122.659 45.6578 122.485 45.5705 122.267 45.5269C121.962 45.3961 121.613 45.3089 121.308 45.2217H121.264L120.741 45.0473C120.393 44.9601 120.088 44.8293 119.739 44.7421L119.608 44.6985C119.477 44.6549 119.347 44.6113 119.216 44.5677C118.867 44.4805 118.475 44.3496 118.126 44.2624L117.995 44.2188C117.908 44.1752 117.777 44.1752 117.69 44.1316C117.211 44.0008 116.688 43.87 116.165 43.7392H116.121C115.947 43.6956 115.729 43.652 115.554 43.6084C115.119 42.2131 114.29 40.9922 113.157 40.1201L114.203 12.1702C114.203 11.9522 114.203 11.647 114.203 11.2982C114.072 8.15871 112.765 5.28087 110.455 3.1443C108.145 1.00772 105.181 -0.0823555 102.042 0.00485154C98.9041 0.135662 96.0274 1.44377 93.8916 3.75476C91.7558 6.06575 90.6662 9.03078 90.7534 12.1702L91.7994 40.1201C90.6661 40.9922 89.838 42.2131 89.4021 43.6084C82.5589 45.1345 76.0209 47.8379 70.093 51.5878C68.7854 50.8902 67.3471 50.6722 65.9087 50.8466L46.8611 30.3529C46.7303 30.2221 46.5123 29.9605 46.2508 29.7425C43.9407 27.6059 40.9768 26.5158 37.8385 26.603C34.7003 26.7338 31.8235 28.0419 29.6877 30.3529C25.2854 35.1057 25.5905 42.5183 30.2979 46.9223L50.7839 65.9334C50.7403 66.2386 50.7403 66.5002 50.7403 66.8055C50.7403 67.9828 51.0019 69.1165 51.5685 70.1193C51.3506 70.4682 51.089 70.8606 50.8711 71.2094C50.3916 72.0379 49.8686 72.8664 49.4327 73.7384C49.2148 74.1309 49.0404 74.5233 48.8225 74.8721C48.4302 75.657 48.0379 76.4419 47.6892 77.2267C46.7739 79.2325 45.9457 81.2819 45.2484 83.3312C44.9868 84.1597 44.7253 85.0317 44.4638 85.8602C44.1151 86.9939 43.8535 88.2148 43.592 89.3921C42.1972 89.8281 40.9768 90.6566 40.105 91.7903L12.1657 90.7438C11.8606 90.7438 11.599 90.7438 11.2939 90.7438C8.15566 90.8746 5.27893 92.1827 3.14316 94.4937C1.00739 96.8047 -0.0823248 99.7697 0.00484955 102.909C0.266373 109.363 5.71478 114.421 12.1657 114.203L40.105 113.156C40.9768 114.29 42.1972 115.118 43.592 115.554C43.6356 115.816 43.7228 116.034 43.7664 116.295C43.81 116.47 43.8536 116.601 43.8972 116.775L43.9407 116.862C44.0279 117.211 44.1151 117.56 44.2022 117.865C44.2458 118.083 44.333 118.258 44.3766 118.476C44.4638 118.781 44.5509 119.13 44.6381 119.479C44.6817 119.653 44.7689 119.871 44.8125 120.045C44.8997 120.394 45.0304 120.699 45.1176 121.048L45.1611 121.179C45.2047 121.31 45.2483 121.484 45.2919 121.615C45.4227 122.008 45.5535 122.356 45.6842 122.749L45.7278 122.836C45.7714 122.923 45.815 123.054 45.815 123.141C45.9893 123.664 46.2073 124.144 46.3816 124.667L46.4688 124.885C46.6431 125.321 46.8175 125.757 46.9918 126.15C47.0354 126.281 47.079 126.412 47.1662 126.499L47.2098 126.586C47.3405 126.935 47.5149 127.24 47.6456 127.589C47.7328 127.72 47.7764 127.894 47.8636 128.025L47.9072 128.112C48.0379 128.417 48.2123 128.723 48.343 129.028C48.4302 129.202 48.5174 129.377 48.6045 129.551C48.7789 129.856 48.9096 130.161 49.084 130.467L49.1276 130.597C49.1712 130.728 49.2584 130.859 49.3456 130.99C49.5199 131.339 49.6942 131.644 49.9122 131.993L49.9557 132.124C49.9993 132.211 50.0429 132.298 50.0865 132.385C50.566 133.214 51.089 134.042 51.6121 134.871C50.9147 136.179 50.6968 137.618 50.8711 139.057L30.3851 158.111C30.1672 158.286 29.9928 158.504 29.7749 158.722C25.3726 163.475 25.6777 170.887 30.3851 175.291C32.6953 177.428 35.6592 178.518 38.7974 178.431C41.9357 178.3 44.8125 176.992 46.9483 174.681L65.9523 154.187C67.347 154.361 68.829 154.1 70.1366 153.446C76.0645 157.196 82.6026 159.943 89.4458 161.425C89.8816 162.82 90.7098 164.041 91.843 164.913L90.7969 192.863C90.6662 196.003 91.7994 198.968 93.9352 201.279C96.071 203.59 98.9478 204.898 102.086 205.029C102.217 205.029 102.391 205.029 102.522 205.029C105.486 205.029 108.275 203.939 110.498 201.889C112.808 199.753 114.116 196.875 114.247 193.735C114.247 193.387 114.247 193.081 114.247 192.863L113.201 164.913C114.334 164.041 115.162 162.82 115.598 161.425C122.441 159.899 128.979 157.196 134.907 153.446C136.215 154.143 137.653 154.361 139.092 154.187L158.096 174.681C160.231 176.992 163.108 178.3 166.246 178.431C169.385 178.561 172.349 177.428 174.659 175.291C176.969 173.154 178.276 170.277 178.407 167.137C178.538 163.998 177.405 161.033 175.269 158.722C175.051 158.46 174.833 158.242 174.659 158.111L154.173 139.1C154.347 137.705 154.085 136.222 153.432 134.914C157.18 128.984 159.926 122.444 161.408 115.598C162.803 115.162 164.023 114.333 164.895 113.2L192.835 114.246C199.285 114.464 204.734 109.45 204.995 102.953C205.083 99.857 203.949 96.8919 201.813 94.5809Z" fill="#F77F1C"/>
<path d="M93.2815 107.182L34.0902 162.123C33.9594 162.21 33.8722 162.341 33.7415 162.472C31.3878 165.001 31.5186 168.969 34.0902 171.323C36.6183 173.678 40.5847 173.547 42.9384 170.974L97.8582 111.761L93.2815 107.182Z" fill="#E8F1F7"/>
<path d="M92.279 105.569C92.0611 105.743 91.8867 105.874 91.6688 106.092C89.6202 108.142 89.6202 111.412 91.6688 113.461C93.7174 115.511 96.9864 115.511 99.035 113.461C99.2094 113.287 99.3837 113.069 99.558 112.851L92.279 105.569Z" fill="#03658C"/>
<path d="M70.6163 125.583L79.5517 134.522C80.2055 135.176 80.2055 136.179 79.5517 136.833L68.0447 148.344C67.3908 148.998 66.3884 148.998 65.7346 148.344L56.7992 139.405C56.1454 138.751 56.1454 137.748 56.7992 137.094L68.3062 125.583C68.9164 124.929 69.9625 124.929 70.6163 125.583Z" fill="#03658C"/>
<path d="M107.142 93.3164L162.062 34.1028C162.149 33.972 162.28 33.8848 162.411 33.754C164.939 31.3994 168.905 31.5302 171.259 34.1028C173.613 36.6318 173.482 40.5997 170.91 42.9543L111.719 97.8948L107.142 93.3164Z" fill="#DAE9F2"/>
<path d="M105.53 92.3135C105.704 92.0955 105.835 91.9211 106.053 91.7031C108.101 89.6537 111.37 89.6537 113.419 91.7031C115.467 93.7524 115.467 97.0227 113.419 99.0721C113.245 99.2465 113.027 99.4209 112.809 99.5953L105.53 92.3135Z" fill="#03658C"/>
<path d="M125.536 70.6426L134.471 79.5813C135.125 80.2353 136.128 80.2353 136.782 79.5813L148.289 68.07C148.942 67.4159 148.942 66.413 148.289 65.759L139.353 56.8203C138.699 56.1662 137.697 56.1662 137.043 56.8203L125.536 68.3316C124.882 68.942 124.882 69.9885 125.536 70.6426Z" fill="#03658C"/>
<path d="M92.7148 99.29L12.0349 96.2814C11.9041 96.2814 11.7298 96.2814 11.5554 96.2814C8.11205 96.4122 5.40968 99.3336 5.54044 102.778C5.6712 106.223 8.5915 108.926 12.0349 108.796L92.7148 105.787V99.29Z" fill="#E8F1F7"/>
<path d="M93.1943 97.4151C92.9327 97.3715 92.6712 97.3715 92.4097 97.3715C89.5329 97.3715 87.2228 99.6825 87.2228 102.56C87.2228 105.438 89.5329 107.749 92.4097 107.749C92.6712 107.749 92.9327 107.706 93.1943 107.706V97.4151Z" fill="#03658C"/>
<path d="M63.6856 96.2378V108.839C63.6856 109.755 62.9447 110.496 62.0294 110.496H45.7277C44.8124 110.496 44.0714 109.755 44.0714 108.839V96.2378C44.0714 95.3221 44.8124 94.5809 45.7277 94.5809H62.0294C62.9447 94.6245 63.6856 95.3657 63.6856 96.2378Z" fill="#03658C"/>
<path d="M112.329 99.29L193.009 96.2814C193.14 96.2814 193.314 96.2814 193.488 96.2814C196.932 96.4122 199.634 99.3336 199.503 102.778C199.373 106.223 196.452 108.926 193.009 108.796L112.329 105.787V99.29Z" fill="#DAE9F2"/>
<path d="M111.893 97.4151C112.155 97.3715 112.416 97.3715 112.678 97.3715C115.554 97.3715 117.864 99.6825 117.864 102.56C117.864 105.438 115.554 107.749 112.678 107.749C112.416 107.749 112.155 107.706 111.893 107.706V97.4151Z" fill="#03658C"/>
<path d="M141.358 96.2378V108.839C141.358 109.755 142.099 110.496 143.014 110.496H159.316C160.231 110.496 160.972 109.755 160.972 108.839V96.2378C160.972 95.3221 160.231 94.5809 159.316 94.5809H143.014C142.099 94.6245 141.358 95.3657 141.358 96.2378Z" fill="#03658C"/>
<path d="M97.9016 93.3164L42.9818 34.1028C42.8946 33.972 42.7639 33.8848 42.6331 33.754C40.1051 31.3994 36.1386 31.5302 33.7849 34.1028C31.4312 36.6318 31.562 40.5997 34.1337 42.9543L93.325 97.8948L97.9016 93.3164Z" fill="#E8F1F7"/>
<path d="M99.558 92.3135C99.3837 92.0955 99.2529 91.9211 99.035 91.7031C96.9864 89.6537 93.7174 89.6537 91.6688 91.7031C89.6202 93.7524 89.6202 97.0227 91.6688 99.0721C91.8431 99.2465 92.0611 99.4209 92.279 99.5953L99.558 92.3135Z" fill="#03658C"/>
<path d="M79.5079 70.6426L70.5725 79.5813C69.9187 80.2353 68.9161 80.2353 68.2623 79.5813L56.7554 68.07C56.1016 67.4159 56.1016 66.413 56.7554 65.759L65.6907 56.8203C66.3445 56.1662 67.347 56.1662 68.0008 56.8203L79.5079 68.3316C80.1617 68.942 80.1617 69.9885 79.5079 70.6426Z" fill="#03658C"/>
<path d="M111.762 107.182L170.954 162.123C171.085 162.21 171.172 162.341 171.303 162.472C173.656 165.001 173.525 168.969 170.954 171.323C168.426 173.678 164.459 173.547 162.106 170.974L107.186 111.761L111.762 107.182Z" fill="#DAE9F2"/>
<path d="M112.765 105.569C112.983 105.743 113.157 105.874 113.375 106.092C115.424 108.142 115.424 111.412 113.375 113.461C111.327 115.511 108.058 115.511 106.009 113.461C105.835 113.287 105.66 113.069 105.486 112.851L112.765 105.569Z" fill="#03658C"/>
<path d="M134.471 125.583L125.536 134.522C124.882 135.176 124.882 136.179 125.536 136.833L137.043 148.344C137.697 148.998 138.699 148.998 139.353 148.344L148.289 139.405C148.942 138.751 148.942 137.748 148.289 137.094L136.782 125.583C136.128 124.929 135.082 124.929 134.471 125.583Z" fill="#03658C"/>
<path d="M105.791 92.7496L108.798 12.0394C108.798 11.9086 108.798 11.7342 108.798 11.5598C108.668 8.1151 105.747 5.41168 102.304 5.54249C98.8605 5.6733 96.1581 8.59475 96.2889 12.0394L99.2964 92.7496H105.791Z" fill="#E8F1F7"/>
<path d="M107.665 93.2292C107.709 92.9676 107.709 92.706 107.709 92.4443C107.709 89.5665 105.399 87.2555 102.522 87.2555C99.6451 87.2555 97.335 89.5665 97.335 92.4443C97.335 92.706 97.3785 92.9676 97.3785 93.2292H107.665Z" fill="#03658C"/>
<path d="M108.842 63.7096H96.2453C95.33 63.7096 94.589 62.9683 94.589 62.0527V45.7449C94.589 44.8293 95.33 44.088 96.2453 44.088H108.842C109.757 44.088 110.498 44.8293 110.498 45.7449V62.0527C110.455 62.9683 109.757 63.7096 108.842 63.7096Z" fill="#03658C"/>
<path d="M105.791 112.371L108.798 193.081C108.798 193.212 108.798 193.387 108.798 193.561C108.668 197.006 105.747 199.709 102.304 199.578C98.8605 199.447 96.1581 196.526 96.2889 193.081L99.2964 112.371H105.791Z" fill="#DAE9F2"/>
<path d="M107.665 111.935C107.709 112.197 107.709 112.458 107.709 112.72C107.709 115.598 105.399 117.909 102.522 117.909C99.6451 117.909 97.335 115.598 97.335 112.72C97.335 112.458 97.3785 112.197 97.3785 111.935H107.665Z" fill="#03658C"/>
<path d="M108.842 141.411H96.2453C95.33 141.411 94.589 142.152 94.589 143.068V159.332C94.589 160.248 95.33 160.989 96.2453 160.989H108.842C109.757 160.989 110.498 160.248 110.498 159.332V143.024C110.455 142.152 109.757 141.411 108.842 141.411Z" fill="#03658C"/>
<path d="M102.522 47.7071C72.2289 47.7071 47.6893 72.2559 47.6893 102.56C47.6893 132.865 72.2289 157.414 102.522 157.414C132.815 157.414 157.355 132.865 157.355 102.56C157.355 72.2559 132.815 47.7071 102.522 47.7071ZM102.522 144.202C79.5516 144.202 60.8963 125.539 60.8963 102.56C60.8963 79.5813 79.5516 60.919 102.522 60.919C125.492 60.919 144.148 79.5813 144.148 102.56C144.148 125.583 125.536 144.202 102.522 144.202Z" fill="#03658C"/>
<path d="M60.8963 102.56C60.8963 79.5813 79.5516 60.919 102.522 60.919C112.111 60.919 120.959 64.1893 127.977 69.6397C127.89 64.1893 127.192 58.6516 126.321 53.1576C119.129 49.6693 111.022 47.7071 102.522 47.7071C72.2289 47.7071 47.6893 72.2559 47.6893 102.56C47.6893 120.089 55.9273 135.699 68.6983 145.771C74.0595 144.594 79.2464 142.676 84.1282 139.929C70.3546 133.126 60.8963 118.955 60.8963 102.56Z" fill="#03658C"/>
<path d="M102.522 90.177C95.6788 90.177 90.1432 95.7146 90.1432 102.56C90.1432 109.406 95.6788 114.944 102.522 114.944C109.365 114.944 114.901 109.406 114.901 102.56C114.901 95.7146 109.365 90.177 102.522 90.177ZM102.522 109.45C98.7299 109.45 95.6352 106.354 95.6352 102.56C95.6352 98.7669 98.7299 95.671 102.522 95.671C106.314 95.671 109.409 98.7669 109.409 102.56C109.409 106.354 106.314 109.45 102.522 109.45Z" fill="#03658C"/>
</svg>
