<svg xmlns="http://www.w3.org/2000/svg" width="26" height="28" fill="none" viewBox="0 0 26 28">
  <path fill="#BEBEBE" d="m1.75 15.875 10-14.338v14.338h-10Zm11.875 0c1.688-4.688 1.463-10.988 0-15.625 5.95 1.925 10.5 9.25 10.575 15.625H13.625Zm10.75 4.475a9.056 9.056 0 0 1-1.813 2.075c-.812-.363-1.537-.925-2.112-1.55-1.863 2.413-5.625 2.413-7.487 0-1.838 2.413-5.625 2.413-7.463 0-.625.625-1.313 1.188-2.125 1.55C1.95 21.25.875 19.575.5 17.75h24.925a8.014 8.014 0 0 1-1.05 2.6Zm-.175 7.4a7.87 7.87 0 0 1-3.75-.938c-2.3 1.25-5.188 1.25-7.487 0-2.3 1.25-5.188 1.25-7.463 0-1.538.863-3.3 1-5 .938v-2.5c1.763.063 3.462-.125 5-1.25 2.175 1.563 5.262 1.563 7.463 0 2.212 1.563 5.287 1.563 7.487 0 1.512 1.125 3.225 1.313 4.975 1.25v2.5H24.2Z"/>
</svg>
