<svg width="242" height="256" viewBox="0 0 242 256" fill="none" xmlns="http://www.w3.org/2000/svg">
<path d="M242 121C242 154.383 242 255.5 242 255.5H121H0.000488281C0.000488281 255.5 0.000488281 154.383 0.000488281 121C0.000488281 54.1735 54.174 0 121 0C187.827 0 242 54.1735 242 121Z" fill="#03658C"/>
<mask id="mask0_411_1885" style="mask-type:alpha" maskUnits="userSpaceOnUse" x="46" y="44" width="151" height="150">
<circle cx="121" cy="119" r="75" fill="#D9D9D9"/>
</mask>
<g mask="url(#mask0_411_1885)">
<path d="M46.0005 142C50.4193 140.5 53.7333 138 61.4662 138C70.9208 138 72.5131 142 81.3507 142C90.1882 142 93.5023 138 101.787 138C110.073 138 114.491 142 122.777 142C131.062 142 134.928 138 142.661 138C150.394 138 157.574 142 164.755 142C171.936 142 174.697 138 183.535 138C190.605 138 193.293 140.667 199 142" stroke="white" stroke-width="5" stroke-linecap="round"/>
<path d="M44.0005 187C48.4193 185.5 51.7333 183 59.4662 183C68.9208 183 70.5131 187 79.3507 187C88.1882 187 91.5023 183 99.7875 183C108.073 183 112.491 187 120.777 187C129.062 187 132.928 183 140.661 183C148.394 183 155.574 187 162.755 187C169.936 187 172.697 183 181.535 183C188.605 183 191.293 185.667 197 187" stroke="white" stroke-width="5" stroke-linecap="round"/>
<path d="M43.0005 196C47.4193 194.5 50.7333 192 58.4662 192C67.9208 192 69.5131 196 78.3507 196C87.1882 196 90.5023 192 98.7875 192C107.073 192 111.491 196 119.777 196C128.062 196 131.928 192 139.661 192C147.394 192 154.574 196 161.755 196C168.936 196 171.697 192 180.535 192C187.605 192 190.293 194.667 196 196" stroke="white" stroke-width="5" stroke-linecap="round"/>
<path d="M44.0005 178C48.4193 176.5 51.7333 174 59.4662 174C68.9208 174 70.5131 178 79.3507 178C88.1882 178 91.5023 174 99.7875 174C108.073 174 112.491 178 120.777 178C129.062 178 132.928 174 140.661 174C148.394 174 155.574 178 162.755 178C169.936 178 172.697 174 181.535 174C188.605 174 191.293 176.667 197 178" stroke="white" stroke-width="5" stroke-linecap="round"/>
<path d="M46.0005 169C50.4193 167.5 53.7333 165 61.4662 165C70.9208 165 72.5131 169 81.3507 169C90.1882 169 93.5023 165 101.787 165C110.073 165 114.491 169 122.777 169C131.062 169 134.928 165 142.661 165C150.394 165 157.574 169 164.755 169C171.936 169 174.697 165 183.535 165C190.605 165 193.293 167.667 199 169" stroke="white" stroke-width="5" stroke-linecap="round"/>
<path d="M46.0005 160C50.4193 158.5 53.7333 156 61.4662 156C70.9208 156 72.5131 160 81.3507 160C90.1882 160 93.5023 156 101.787 156C110.073 156 114.491 160 122.777 160C131.062 160 134.928 156 142.661 156C150.394 156 157.574 160 164.755 160C171.936 160 174.697 156 183.535 156C190.605 156 193.293 158.667 199 160" stroke="white" stroke-width="5" stroke-linecap="round"/>
<path d="M46.0005 151C50.4193 149.5 53.7333 147 61.4662 147C70.9208 147 72.5131 151 81.3507 151C90.1882 151 93.5023 147 101.787 147C110.073 147 114.491 151 122.777 151C131.062 151 134.928 147 142.661 147C150.394 147 157.574 151 164.755 151C171.936 151 174.697 147 183.535 147C190.605 147 193.293 149.667 199 151" stroke="white" stroke-width="5" stroke-linecap="round"/>
</g>
<ellipse cx="120.5" cy="114.5" rx="70.5" ry="52.5" fill="#03658C"/>
<path d="M209 160C227.4 172 224 186.667 220 192.5V187.5C207.2 182.3 204 171.667 204 167C208 179 216.333 183.667 220 184.5C221.6 174.5 215.667 168.667 212.5 167C215.879 170.6 217.574 176.167 218 178.5C206.8 172.9 207.333 163.833 209 160Z" fill="white"/>
<path d="M222.5 169C224 167.167 226.1 162.2 222.5 157C220.667 159 218.1 164.2 222.5 169Z" fill="white"/>
<path d="M231 169C229.8 176.2 226.833 179.333 225.5 180V176.5L228 171.5L224.5 174C225.576 167.6 229.282 168 231 169Z" fill="white"/>
<path d="M209 160C227.4 172 224 186.667 220 192.5V187.5C207.2 182.3 204 171.667 204 167C208 179 216.333 183.667 220 184.5C221.6 174.5 215.667 168.667 212.5 167C215.879 170.6 217.574 176.167 218 178.5C206.8 172.9 207.333 163.833 209 160Z" stroke="white" stroke-linecap="round"/>
<path d="M222.5 169C224 167.167 226.1 162.2 222.5 157C220.667 159 218.1 164.2 222.5 169Z" stroke="white" stroke-linecap="round"/>
<path d="M231 169C229.8 176.2 226.833 179.333 225.5 180V176.5L228 171.5L224.5 174C225.576 167.6 229.282 168 231 169Z" stroke="white" stroke-linecap="round"/>
<path d="M34 160C15.6 172 19 186.667 23 192.5V187.5C35.8 182.3 39 171.667 39 167C35 179 26.6667 183.667 23 184.5C21.4 174.5 27.3333 168.667 30.5 167C27.1214 170.6 25.4256 176.167 25 178.5C36.2 172.9 35.6667 163.833 34 160Z" fill="white"/>
<path d="M20.5 169C19 167.167 16.9 162.2 20.5 157C22.3333 159 24.9 164.2 20.5 169Z" fill="white"/>
<path d="M12 169C13.2 176.2 16.1667 179.333 17.5 180V176.5L15 171.5L18.5 174C17.4241 167.6 13.7184 168 12 169Z" fill="white"/>
<path d="M34 160C15.6 172 19 186.667 23 192.5V187.5C35.8 182.3 39 171.667 39 167C35 179 26.6667 183.667 23 184.5C21.4 174.5 27.3333 168.667 30.5 167C27.1214 170.6 25.4256 176.167 25 178.5C36.2 172.9 35.6667 163.833 34 160Z" stroke="white" stroke-linecap="round"/>
<path d="M20.5 169C19 167.167 16.9 162.2 20.5 157C22.3333 159 24.9 164.2 20.5 169Z" stroke="white" stroke-linecap="round"/>
<path d="M12 169C13.2 176.2 16.1667 179.333 17.5 180V176.5L15 171.5L18.5 174C17.4241 167.6 13.7184 168 12 169Z" stroke="white" stroke-linecap="round"/>
<path d="M175.5 134C133.3 153.2 84.7501 142 67.0005 134C83.5005 151 104.5 158 122.5 158C140.5 158 162.5 151.5 175.5 134Z" fill="white" stroke="white" stroke-linecap="round"/>
<path d="M78.0005 57C65.2005 79 54.5005 91.5 43.5005 98C51.5005 94.8 53 94.5 56.5 92.5C56.5 96 52.6667 104.333 50 106.5C64.8 98.9 64.5005 93.1667 67.0005 86.5C64.2005 103.7 59.5 112.167 54.5 118C66.9 110 68.3333 102.833 71 94.5C73.5 97 73.5 100.5 73.5 103.5C79.1 93.1 79.3338 89.5 78.0005 82.5C83.2005 86.9 83.6672 93.5 84.0005 97C86.0005 89.8 87.3338 77.8333 86.5005 74L92.5005 80.5L96.0005 74L78.0005 57Z" fill="white"/>
<path d="M178 69C190.5 91 195.5 97 200.5 103.5C190.9 99.9 190.167 97 187 94.5C184.5 96 185 99.1667 185.5 101C173.1 91.8 169.667 85.3333 166.5 80.5L171.5 98C168.7 96.4 161.667 84.6667 158 79.5L156 83L147.5 67L153.5 57C163 64 168.5 71 175 74L178 69Z" fill="white"/>
<path d="M112.5 130.5C103.3 104.9 108 77.8333 111 64C96.6005 89.6 85.0005 116.667 78.0005 130.5C97.6005 126.1 106.834 128.667 112.5 130.5Z" fill="white"/>
<path d="M130 125.5C135.2 101.5 131 59.1667 128 46L166.5 123L130 125.5Z" fill="white"/>
<path d="M78.0005 57C65.2005 79 54.5005 91.5 43.5005 98C51.5005 94.8 53 94.5 56.5 92.5C56.5 96 52.6667 104.333 50 106.5C64.8 98.9 64.5005 93.1667 67.0005 86.5C64.2005 103.7 59.5 112.167 54.5 118C66.9 110 68.3333 102.833 71 94.5C73.5 97 73.5 100.5 73.5 103.5C79.1 93.1 79.3338 89.5 78.0005 82.5C83.2005 86.9 83.6672 93.5 84.0005 97C86.0005 89.8 87.3338 77.8333 86.5005 74L92.5005 80.5L96.0005 74L78.0005 57Z" stroke="white" stroke-linecap="round"/>
<path d="M178 69C190.5 91 195.5 97 200.5 103.5C190.9 99.9 190.167 97 187 94.5C184.5 96 185 99.1667 185.5 101C173.1 91.8 169.667 85.3333 166.5 80.5L171.5 98C168.7 96.4 161.667 84.6667 158 79.5L156 83L147.5 67L153.5 57C163 64 168.5 71 175 74L178 69Z" stroke="white" stroke-linecap="round"/>
<path d="M112.5 130.5C103.3 104.9 108 77.8333 111 64C96.6005 89.6 85.0005 116.667 78.0005 130.5C97.6005 126.1 106.834 128.667 112.5 130.5Z" stroke="white" stroke-linecap="round"/>
<path d="M130 125.5C135.2 101.5 131 59.1667 128 46L166.5 123L130 125.5Z" stroke="white" stroke-linecap="round"/>
<path d="M121 38V135" stroke="white" stroke-width="3" stroke-linecap="round"/>
<circle cx="156.5" cy="33.5" r="13.5" fill="white"/>
<path d="M132 23.4999C106.167 19.4999 23.5 33.5 23.5 132" stroke="white" stroke-width="5" stroke-linecap="round"/>
<path d="M181 43.5C192.5 49.5 220.5 73 220.5 132.5" stroke="white" stroke-width="5" stroke-linecap="round"/>
<path d="M29.1335 219.668C29.0483 218.73 28.669 218.001 27.9957 217.482C27.331 216.953 26.3807 216.689 25.1449 216.689C24.3267 216.689 23.6449 216.795 23.0994 217.009C22.554 217.222 22.1449 217.516 21.8722 217.891C21.5994 218.257 21.4588 218.679 21.4503 219.156C21.4332 219.548 21.5099 219.893 21.6804 220.192C21.8594 220.49 22.1151 220.754 22.4474 220.984C22.7884 221.206 23.1974 221.402 23.6747 221.572C24.152 221.743 24.6889 221.892 25.2855 222.02L27.5355 222.531C28.831 222.812 29.973 223.188 30.9616 223.656C31.9588 224.125 32.794 224.683 33.4673 225.331C34.1491 225.979 34.6648 226.724 35.0142 227.568C35.3636 228.412 35.5426 229.358 35.5511 230.406C35.5426 232.06 35.125 233.479 34.2983 234.663C33.4716 235.848 32.2827 236.756 30.7315 237.386C29.1889 238.017 27.3267 238.332 25.1449 238.332C22.9545 238.332 21.0455 238.004 19.4176 237.348C17.7898 236.692 16.5241 235.695 15.6207 234.357C14.7173 233.018 14.2528 231.327 14.2273 229.281H20.2869C20.3381 230.125 20.5639 230.828 20.9645 231.391C21.3651 231.953 21.9148 232.379 22.6136 232.669C23.321 232.959 24.1392 233.104 25.0682 233.104C25.9205 233.104 26.6449 232.989 27.2415 232.759C27.8466 232.528 28.3111 232.209 28.6349 231.8C28.9588 231.391 29.125 230.922 29.1335 230.393C29.125 229.899 28.9716 229.477 28.6733 229.128C28.375 228.77 27.9148 228.463 27.2926 228.207C26.679 227.943 25.8949 227.7 24.9403 227.479L22.2045 226.839C19.9375 226.32 18.152 225.48 16.848 224.321C15.544 223.153 14.8963 221.577 14.9048 219.591C14.8963 217.972 15.331 216.553 16.2088 215.334C17.0866 214.115 18.3011 213.165 19.8523 212.483C21.4034 211.801 23.1719 211.46 25.1577 211.46C27.1861 211.46 28.946 211.805 30.4375 212.496C31.9375 213.178 33.1009 214.136 33.9276 215.372C34.7543 216.608 35.1761 218.04 35.1932 219.668H29.1335ZM47.2019 238H40.4008L49.2346 211.818H57.6593L66.4931 238H59.692L53.5428 218.415H53.3383L47.2019 238ZM46.2942 227.696H60.5102V232.503H46.2942V227.696ZM79.2401 211.818V238H72.912V211.818H79.2401ZM86.8128 238V211.818H93.1409V232.861H104.033V238H86.8128ZM110.909 211.818H118.746L125.393 228.028H125.7L132.348 211.818H140.184V238H134.023V221.918H133.805L127.515 237.834H123.578L117.288 221.828H117.071V238H110.909V211.818ZM172.443 224.909C172.443 227.79 171.889 230.232 170.781 232.234C169.673 234.237 168.173 235.759 166.281 236.798C164.398 237.838 162.284 238.358 159.94 238.358C157.588 238.358 155.47 237.834 153.587 236.786C151.703 235.737 150.207 234.216 149.099 232.222C148 230.219 147.45 227.781 147.45 224.909C147.45 222.028 148 219.587 149.099 217.584C150.207 215.581 151.703 214.06 153.587 213.02C155.47 211.98 157.588 211.46 159.94 211.46C162.284 211.46 164.398 211.98 166.281 213.02C168.173 214.06 169.673 215.581 170.781 217.584C171.889 219.587 172.443 222.028 172.443 224.909ZM165.974 224.909C165.974 223.205 165.732 221.764 165.246 220.588C164.768 219.412 164.078 218.521 163.175 217.916C162.28 217.311 161.202 217.009 159.94 217.009C158.688 217.009 157.609 217.311 156.706 217.916C155.803 218.521 155.108 219.412 154.622 220.588C154.145 221.764 153.906 223.205 153.906 224.909C153.906 226.614 154.145 228.054 154.622 229.23C155.108 230.406 155.803 231.297 156.706 231.902C157.609 232.507 158.688 232.81 159.94 232.81C161.202 232.81 162.28 232.507 163.175 231.902C164.078 231.297 164.768 230.406 165.246 229.23C165.732 228.054 165.974 226.614 165.974 224.909ZM179.738 238V211.818H190.553C192.513 211.818 194.205 212.172 195.628 212.879C197.06 213.578 198.164 214.584 198.939 215.896C199.715 217.2 200.103 218.747 200.103 220.537C200.103 222.352 199.707 223.895 198.914 225.165C198.121 226.426 196.996 227.389 195.539 228.054C194.082 228.71 192.356 229.038 190.361 229.038H183.522V224.053H189.185C190.14 224.053 190.937 223.929 191.576 223.682C192.224 223.426 192.714 223.043 193.046 222.531C193.378 222.011 193.545 221.347 193.545 220.537C193.545 219.727 193.378 219.058 193.046 218.53C192.714 217.993 192.224 217.592 191.576 217.328C190.928 217.055 190.131 216.919 189.185 216.919H186.066V238H179.738ZM194.478 226.034L200.998 238H194.094L187.702 226.034H194.478ZM207.174 238V211.818H225.429V216.957H213.502V222.327H224.496V227.479H213.502V232.861H225.429V238H207.174Z" fill="white"/>
</svg>
