<svg width="242" height="242" viewBox="0 0 242 242" fill="none" xmlns="http://www.w3.org/2000/svg">
<circle cx="121" cy="121" r="121" fill="#03658C"/>
<mask id="mask0_384_2008" style="mask-type:alpha" maskUnits="userSpaceOnUse" x="46" y="44" width="150" height="150">
<circle cx="121" cy="119" r="75" fill="#D9D9D9"/>
</mask>
<g mask="url(#mask0_384_2008)">
<path d="M46 142C50.4188 140.5 53.7329 138 61.4657 138C70.9204 138 72.5126 142 81.3502 142C90.1877 142 93.5018 138 101.787 138C110.072 138 114.491 142 122.776 142C131.061 142 134.928 138 142.661 138C150.394 138 157.574 142 164.755 142C171.935 142 174.697 138 183.534 138C190.604 138 193.292 140.667 199 142" stroke="white" stroke-width="5" stroke-linecap="round"/>
<path d="M44 187C48.4188 185.5 51.7329 183 59.4657 183C68.9204 183 70.5126 187 79.3502 187C88.1877 187 91.5018 183 99.787 183C108.072 183 112.491 187 120.776 187C129.061 187 132.928 183 140.661 183C148.394 183 155.574 187 162.755 187C169.935 187 172.697 183 181.534 183C188.604 183 191.292 185.667 197 187" stroke="white" stroke-width="5" stroke-linecap="round"/>
<path d="M43 196C47.4188 194.5 50.7329 192 58.4657 192C67.9204 192 69.5126 196 78.3502 196C87.1877 196 90.5018 192 98.787 192C107.072 192 111.491 196 119.776 196C128.061 196 131.928 192 139.661 192C147.394 192 154.574 196 161.755 196C168.935 196 171.697 192 180.534 192C187.604 192 190.292 194.667 196 196" stroke="white" stroke-width="5" stroke-linecap="round"/>
<path d="M44 178C48.4188 176.5 51.7329 174 59.4657 174C68.9204 174 70.5126 178 79.3502 178C88.1877 178 91.5018 174 99.787 174C108.072 174 112.491 178 120.776 178C129.061 178 132.928 174 140.661 174C148.394 174 155.574 178 162.755 178C169.935 178 172.697 174 181.534 174C188.604 174 191.292 176.667 197 178" stroke="white" stroke-width="5" stroke-linecap="round"/>
<path d="M46 169C50.4188 167.5 53.7329 165 61.4657 165C70.9204 165 72.5126 169 81.3502 169C90.1877 169 93.5018 165 101.787 165C110.072 165 114.491 169 122.776 169C131.061 169 134.928 165 142.661 165C150.394 165 157.574 169 164.755 169C171.935 169 174.697 165 183.534 165C190.604 165 193.292 167.667 199 169" stroke="white" stroke-width="5" stroke-linecap="round"/>
<path d="M46 160C50.4188 158.5 53.7329 156 61.4657 156C70.9204 156 72.5126 160 81.3502 160C90.1877 160 93.5018 156 101.787 156C110.072 156 114.491 160 122.776 160C131.061 160 134.928 156 142.661 156C150.394 156 157.574 160 164.755 160C171.935 160 174.697 156 183.534 156C190.604 156 193.292 158.667 199 160" stroke="white" stroke-width="5" stroke-linecap="round"/>
<path d="M46 151C50.4188 149.5 53.7329 147 61.4657 147C70.9204 147 72.5126 151 81.3502 151C90.1877 151 93.5018 147 101.787 147C110.072 147 114.491 151 122.776 151C131.061 151 134.928 147 142.661 147C150.394 147 157.574 151 164.755 151C171.935 151 174.697 147 183.534 147C190.604 147 193.292 149.667 199 151" stroke="white" stroke-width="5" stroke-linecap="round"/>
</g>
<ellipse cx="120.5" cy="114.5" rx="70.5" ry="52.5" fill="#03658C"/>
<path d="M209 120C227.4 132 224 146.667 220 152.5V147.5C207.2 142.3 204 131.667 204 127C208 139 216.333 143.667 220 144.5C221.6 134.5 215.667 128.667 212.5 127C215.879 130.6 217.574 136.167 218 138.5C206.8 132.9 207.333 123.833 209 120Z" fill="white"/>
<path d="M222.5 129C224 127.167 226.1 122.2 222.5 117C220.667 119 218.1 124.2 222.5 129Z" fill="white"/>
<path d="M231 129C229.8 136.2 226.833 139.333 225.5 140V136.5L228 131.5L224.5 134C225.576 127.6 229.282 128 231 129Z" fill="white"/>
<path d="M209 120C227.4 132 224 146.667 220 152.5V147.5C207.2 142.3 204 131.667 204 127C208 139 216.333 143.667 220 144.5C221.6 134.5 215.667 128.667 212.5 127C215.879 130.6 217.574 136.167 218 138.5C206.8 132.9 207.333 123.833 209 120Z" stroke="white" stroke-linecap="round"/>
<path d="M222.5 129C224 127.167 226.1 122.2 222.5 117C220.667 119 218.1 124.2 222.5 129Z" stroke="white" stroke-linecap="round"/>
<path d="M231 129C229.8 136.2 226.833 139.333 225.5 140V136.5L228 131.5L224.5 134C225.576 127.6 229.282 128 231 129Z" stroke="white" stroke-linecap="round"/>
<path d="M33 120C14.6 132 18 146.667 22 152.5V147.5C34.8 142.3 38 131.667 38 127C34 139 25.6667 143.667 22 144.5C20.4 134.5 26.3333 128.667 29.5 127C26.1214 130.6 24.4256 136.167 24 138.5C35.2 132.9 34.6667 123.833 33 120Z" fill="white"/>
<path d="M19.5 129C18 127.167 15.9 122.2 19.5 117C21.3333 119 23.9 124.2 19.5 129Z" fill="white"/>
<path d="M11 129C12.2 136.2 15.1667 139.333 16.5 140V136.5L14 131.5L17.5 134C16.4241 127.6 12.7184 128 11 129Z" fill="white"/>
<path d="M33 120C14.6 132 18 146.667 22 152.5V147.5C34.8 142.3 38 131.667 38 127C34 139 25.6667 143.667 22 144.5C20.4 134.5 26.3333 128.667 29.5 127C26.1214 130.6 24.4256 136.167 24 138.5C35.2 132.9 34.6667 123.833 33 120Z" stroke="white" stroke-linecap="round"/>
<path d="M19.5 129C18 127.167 15.9 122.2 19.5 117C21.3333 119 23.9 124.2 19.5 129Z" stroke="white" stroke-linecap="round"/>
<path d="M11 129C12.2 136.2 15.1667 139.333 16.5 140V136.5L14 131.5L17.5 134C16.4241 127.6 12.7184 128 11 129Z" stroke="white" stroke-linecap="round"/>
<path d="M175.5 134C133.299 153.2 84.7496 142 67 134C83.5 151 104.5 158 122.5 158C140.5 158 162.5 151.5 175.5 134Z" fill="white" stroke="white" stroke-linecap="round"/>
<path d="M78 57C65.2 79 41 101 30 107.5C38 104.3 50.5 99.5 52.5 97C49.7 107 46.1667 110.333 43.5 112.5C58.3 104.9 64.5 93.1667 67 86.5C64.2 103.7 53.5 119.667 48.5 125.5C60.9 117.5 69.3333 98.8333 72 90.5C76.4 97.7 72.5 108.167 72 112.5C77.6 102.1 79.3333 89.5 78 82.5C83.2 86.9 83.6667 93.5 84 97C86 89.8 87.3333 77.8333 86.5 74L92.5 80.5L96 74L78 57Z" fill="white"/>
<path d="M171 69.5C184.2 88.7 203.5 105.5 211.5 111.5C201.9 107.9 193.167 102 190 99.5C190 100.7 191 104.667 191.5 106.5C179.1 97.3 169.667 85.3333 166.5 80.5L171.5 98C168.7 96.4 161.667 84.6667 158 79.5L156 83L147 66.5L149.5 56C156.7 66 169.5 76.5 175 80.5L171 69.5Z" fill="white"/>
<path d="M112.5 130.5C103.3 104.9 108 77.8333 111 64C96.6 89.6 85 116.667 78 130.5C97.6 126.1 106.833 128.667 112.5 130.5Z" fill="white"/>
<path d="M130 125.5C135.2 101.5 131 59.1667 128 46L166.5 123L130 125.5Z" fill="white"/>
<path d="M78 57C65.2 79 41 101 30 107.5C38 104.3 50.5 99.5 52.5 97C49.7 107 46.1667 110.333 43.5 112.5C58.3 104.9 64.5 93.1667 67 86.5C64.2 103.7 53.5 119.667 48.5 125.5C60.9 117.5 69.3333 98.8333 72 90.5C76.4 97.7 72.5 108.167 72 112.5C77.6 102.1 79.3333 89.5 78 82.5C83.2 86.9 83.6667 93.5 84 97C86 89.8 87.3333 77.8333 86.5 74L92.5 80.5L96 74L78 57Z" stroke="white" stroke-linecap="round"/>
<path d="M171 69.5C184.2 88.7 203.5 105.5 211.5 111.5C201.9 107.9 193.167 102 190 99.5C190 100.7 191 104.667 191.5 106.5C179.1 97.3 169.667 85.3333 166.5 80.5L171.5 98C168.7 96.4 161.667 84.6667 158 79.5L156 83L147 66.5L149.5 56C156.7 66 169.5 76.5 175 80.5L171 69.5Z" stroke="white" stroke-linecap="round"/>
<path d="M112.5 130.5C103.3 104.9 108 77.8333 111 64C96.6 89.6 85 116.667 78 130.5C97.6 126.1 106.833 128.667 112.5 130.5Z" stroke="white" stroke-linecap="round"/>
<path d="M130 125.5C135.2 101.5 131 59.1667 128 46L166.5 123L130 125.5Z" stroke="white" stroke-linecap="round"/>
<path d="M121 38V135" stroke="white" stroke-width="3" stroke-linecap="round"/>
<circle cx="156.5" cy="33.5" r="13.5" fill="white"/>
<path d="M132 23.5C106.167 19.5 45 29.5 26 94.0001" stroke="white" stroke-width="5" stroke-linecap="round"/>
<path d="M181 43.5C192.5 49.5 213 68.5 217.5 94.5" stroke="white" stroke-width="5" stroke-linecap="round"/>
<path d="M50.8854 180.41C51.4825 179.824 51.7704 179.153 51.7492 178.397C51.7386 177.643 51.3856 176.84 50.6901 175.99C50.2297 175.427 49.7727 175.018 49.3191 174.762C48.8655 174.507 48.433 174.391 48.0215 174.414C47.6158 174.433 47.2464 174.573 46.9133 174.836C46.6339 175.045 46.4396 175.292 46.3303 175.577C46.2258 175.868 46.1879 176.193 46.2166 176.551C46.256 176.91 46.3514 177.302 46.5027 177.727C46.654 178.151 46.8536 178.604 47.1013 179.087L48.0158 180.923C48.5513 181.972 48.936 182.969 49.1699 183.913C49.4086 184.863 49.4945 185.752 49.4278 186.579C49.3658 187.413 49.1429 188.188 48.759 188.903C48.3751 189.618 47.825 190.274 47.1085 190.869C45.9661 191.794 44.7547 192.305 43.4744 192.403C42.194 192.501 40.9004 192.194 39.5935 191.482C38.2914 190.775 37.0264 189.671 35.7985 188.17C34.5659 186.663 33.7172 185.165 33.2526 183.676C32.788 182.186 32.7618 180.754 33.1741 179.38C33.5863 178.005 34.4889 176.733 35.8819 175.565L39.2921 179.734C38.7404 180.244 38.3837 180.795 38.2221 181.387C38.0605 181.979 38.0767 182.597 38.2706 183.241C38.4693 183.891 38.8301 184.536 39.3529 185.175C39.8326 185.761 40.3194 186.195 40.8135 186.476C41.3124 186.763 41.7937 186.902 42.2574 186.895C42.7212 186.888 43.1372 186.738 43.5056 186.447C43.8409 186.163 44.0448 185.82 44.1174 185.418C44.1958 185.011 44.1479 184.522 43.9737 183.95C43.8101 183.379 43.5359 182.703 43.1512 181.921L42.0514 179.679C41.1332 177.827 40.706 176.126 40.7696 174.576C40.8391 173.022 41.5594 171.689 42.9305 170.577C44.0399 169.66 45.2609 169.161 46.5934 169.079C47.926 168.997 49.2634 169.298 50.6054 169.981C51.9475 170.665 53.1773 171.69 54.2949 173.056C55.4364 174.452 56.1894 175.857 56.5538 177.271C56.9288 178.687 56.9239 180.027 56.5388 181.291C56.1538 182.556 55.4061 183.652 54.2957 184.58L50.8854 180.41Z" fill="white"/>
<path d="M53.0108 204.901L48.0744 201.411L67.9209 186.941L74.0357 191.264L67.0128 214.8L62.0764 211.31L67.663 193.939L67.5145 193.834L53.0108 204.901ZM57.6393 196.956L67.9575 204.251L65.491 207.74L55.1728 200.445L57.6393 196.956Z" fill="white"/>
<path d="M89.2773 199.039L80.1638 220.453L74.988 218.25L84.1016 196.836L89.2773 199.039Z" fill="white"/>
<path d="M89.6055 223.996L94.6332 201.273L100.125 202.488L96.0845 220.751L105.538 222.843L104.551 227.303L89.6055 223.996Z" fill="white"/>
<path d="M112.858 205.628L119.811 205.2L126.595 219.218L126.867 219.201L131.879 204.456L138.831 204.028L140.263 227.257L134.796 227.593L133.917 213.325L133.724 213.337L129.014 227.802L125.52 228.017L119.065 214.16L118.872 214.172L119.756 228.52L114.289 228.857L112.858 205.628Z" fill="white"/>
<path d="M166.452 205.943C167.387 208.327 167.722 210.527 167.455 212.544C167.189 214.561 166.442 216.307 165.214 217.782C163.993 219.254 162.413 220.37 160.473 221.131C158.527 221.895 156.604 222.149 154.705 221.893C152.806 221.637 151.075 220.864 149.51 219.574C147.95 218.274 146.704 216.435 145.771 214.059C144.836 211.675 144.498 209.476 144.757 207.462C145.023 205.445 145.767 203.7 146.988 202.228C148.209 200.756 149.793 199.638 151.739 198.875C153.678 198.113 155.596 197.857 157.492 198.106C159.395 198.352 161.131 199.124 162.698 200.421C164.265 201.719 165.516 203.559 166.452 205.943ZM161.099 208.043C160.546 206.633 159.877 205.52 159.093 204.705C158.316 203.886 157.456 203.374 156.512 203.166C155.575 202.956 154.584 203.056 153.541 203.465C152.504 203.872 151.71 204.473 151.159 205.267C150.608 206.061 150.322 207.023 150.302 208.154C150.289 209.283 150.56 210.552 151.113 211.962C151.667 213.373 152.332 214.487 153.109 215.305C153.893 216.121 154.757 216.632 155.701 216.839C156.645 217.047 157.635 216.947 158.672 216.54C159.715 216.131 160.509 215.53 161.053 214.739C161.604 213.945 161.886 212.984 161.899 211.856C161.919 210.725 161.653 209.454 161.099 208.043Z" fill="white"/>
<path d="M179.45 211.635L165.393 193.087L173.054 187.28C174.443 186.228 175.832 185.57 177.22 185.307C178.609 185.033 179.931 185.153 181.185 185.666C182.435 186.174 183.54 187.061 184.501 188.329C185.475 189.615 186.023 190.921 186.143 192.246C186.259 193.565 185.979 194.852 185.303 196.105C184.623 197.352 183.577 198.511 182.164 199.582L177.319 203.254L174.642 199.722L178.654 196.681C179.33 196.169 179.828 195.654 180.149 195.135C180.47 194.606 180.611 194.072 180.572 193.531C180.529 192.984 180.289 192.424 179.855 191.85C179.42 191.277 178.943 190.892 178.424 190.696C177.9 190.494 177.338 190.474 176.737 190.634C176.132 190.789 175.494 191.12 174.824 191.628L172.614 193.303L183.933 208.237L179.45 211.635ZM183.467 195.244L194.511 200.22L189.62 203.927L178.667 198.881L183.467 195.244Z" fill="white"/>
<path d="M200.898 193.763L182.745 179.2L192.9 166.543L196.463 169.401L189.828 177.671L193.551 180.658L199.666 173.035L203.239 175.901L197.123 183.524L200.855 186.517L207.489 178.247L211.052 181.106L200.898 193.763Z" fill="white"/>
</svg>
